<?xml version="1.0" encoding="UTF-8" standalone="no"?>
<!DOCTYPE svg PUBLIC "-//W3C//DTD SVG 1.1//EN"
 "http://www.w3.org/Graphics/SVG/1.1/DTD/svg11.dtd">
<!-- Generated by graphviz version 2.50.0 (0)
 -->
<!-- Title: Tree Pages: 1 -->
<svg width="1804pt" height="373pt"
 viewBox="0.00 0.00 1804.00 373.00" xmlns="http://www.w3.org/2000/svg" xmlns:xlink="http://www.w3.org/1999/xlink">
<g id="graph0" class="graph" transform="scale(1 1) rotate(0) translate(4 369)">
<title>Tree</title>
<polygon fill="white" stroke="transparent" points="-4,4 -4,-369 1800,-369 1800,4 -4,4"/>
<!-- 0 -->
<g id="node1" class="node">
<title>0</title>
<path fill="#fdf7f3" stroke="black" d="M995.5,-365C995.5,-365 722.5,-365 722.5,-365 716.5,-365 710.5,-359 710.5,-353 710.5,-353 710.5,-309 710.5,-309 710.5,-303 716.5,-297 722.5,-297 722.5,-297 995.5,-297 995.5,-297 1001.5,-297 1007.5,-303 1007.5,-309 1007.5,-309 1007.5,-353 1007.5,-353 1007.5,-359 1001.5,-365 995.5,-365"/>
<text text-anchor="start" x="804.5" y="-349.8" font-family="Helvetica,sans-Serif" font-size="14.00">BirthYear ≤ &#45;0.016</text>
<text text-anchor="start" x="823.5" y="-334.8" font-family="Helvetica,sans-Serif" font-size="14.00">gini = 0.801</text>
<text text-anchor="start" x="810.5" y="-319.8" font-family="Helvetica,sans-Serif" font-size="14.00">samples = 8212</text>
<text text-anchor="start" x="718.5" y="-304.8" font-family="Helvetica,sans-Serif" font-size="14.00">value = [2141, 258, 1732, 93, 1442, 1750, 796]</text>
</g>
<!-- 1 -->
<g id="node2" class="node">
<title>1</title>
<path fill="#fcf1e9" stroke="black" d="M765,-261C765,-261 537,-261 537,-261 531,-261 525,-255 525,-249 525,-249 525,-205 525,-205 525,-199 531,-193 537,-193 537,-193 765,-193 765,-193 771,-193 777,-199 777,-205 777,-205 777,-249 777,-249 777,-255 771,-261 765,-261"/>
<text text-anchor="start" x="592.5" y="-245.8" font-family="Helvetica,sans-Serif" font-size="14.00">PremMotor ≤ 0.114</text>
<text text-anchor="start" x="615.5" y="-230.8" font-family="Helvetica,sans-Serif" font-size="14.00">gini = 0.587</text>
<text text-anchor="start" x="602.5" y="-215.8" font-family="Helvetica,sans-Serif" font-size="14.00">samples = 4087</text>
<text text-anchor="start" x="533" y="-200.8" font-family="Helvetica,sans-Serif" font-size="14.00">value = [1974, 254, 1709, 2, 14, 134, 0]</text>
</g>
<!-- 0&#45;&gt;1 -->
<g id="edge1" class="edge">
<title>0&#45;&gt;1</title>
<path fill="none" stroke="black" d="M791.47,-296.88C771.11,-286.9 748.62,-275.87 727.71,-265.62"/>
<polygon fill="black" stroke="black" points="729.07,-262.39 718.55,-261.12 725.99,-268.67 729.07,-262.39"/>
<text text-anchor="middle" x="726.64" y="-281.08" font-family="Helvetica,sans-Serif" font-size="14.00">True</text>
</g>
<!-- 8 -->
<g id="node9" class="node">
<title>8</title>
<path fill="#faf1fd" stroke="black" d="M1232,-261C1232,-261 996,-261 996,-261 990,-261 984,-255 984,-249 984,-249 984,-205 984,-205 984,-199 990,-193 996,-193 996,-193 1232,-193 1232,-193 1238,-193 1244,-199 1244,-205 1244,-205 1244,-249 1244,-249 1244,-255 1238,-261 1232,-261"/>
<text text-anchor="start" x="1055" y="-245.8" font-family="Helvetica,sans-Serif" font-size="14.00">PremMotor ≤ 0.045</text>
<text text-anchor="start" x="1078.5" y="-230.8" font-family="Helvetica,sans-Serif" font-size="14.00">gini = 0.687</text>
<text text-anchor="start" x="1065.5" y="-215.8" font-family="Helvetica,sans-Serif" font-size="14.00">samples = 4125</text>
<text text-anchor="start" x="992" y="-200.8" font-family="Helvetica,sans-Serif" font-size="14.00">value = [167, 4, 23, 91, 1428, 1616, 796]</text>
</g>
<!-- 0&#45;&gt;8 -->
<g id="edge8" class="edge">
<title>0&#45;&gt;8</title>
<path fill="none" stroke="black" d="M941.79,-296.88C967.31,-286.68 995.56,-275.38 1021.67,-264.93"/>
<polygon fill="black" stroke="black" points="1023.2,-268.09 1031.19,-261.12 1020.6,-261.59 1023.2,-268.09"/>
<text text-anchor="middle" x="1021.34" y="-280.4" font-family="Helvetica,sans-Serif" font-size="14.00">False</text>
</g>
<!-- 2 -->
<g id="node3" class="node">
<title>2</title>
<path fill="#70ec7f" stroke="black" d="M439,-157C439,-157 233,-157 233,-157 227,-157 221,-151 221,-145 221,-145 221,-101 221,-101 221,-95 227,-89 233,-89 233,-89 439,-89 439,-89 445,-89 451,-95 451,-101 451,-101 451,-145 451,-145 451,-151 445,-157 439,-157"/>
<text text-anchor="start" x="284" y="-141.8" font-family="Helvetica,sans-Serif" font-size="14.00">PremLife ≤ 1.184</text>
<text text-anchor="start" x="300.5" y="-126.8" font-family="Helvetica,sans-Serif" font-size="14.00">gini = 0.402</text>
<text text-anchor="start" x="287.5" y="-111.8" font-family="Helvetica,sans-Serif" font-size="14.00">samples = 2081</text>
<text text-anchor="start" x="229" y="-96.8" font-family="Helvetica,sans-Serif" font-size="14.00">value = [240, 254, 1571, 2, 13, 1, 0]</text>
</g>
<!-- 1&#45;&gt;2 -->
<g id="edge2" class="edge">
<title>1&#45;&gt;2</title>
<path fill="none" stroke="black" d="M548.73,-192.88C516.44,-182.43 480.6,-170.82 447.68,-160.16"/>
<polygon fill="black" stroke="black" points="448.62,-156.79 438.03,-157.04 446.46,-163.45 448.62,-156.79"/>
</g>
<!-- 5 -->
<g id="node6" class="node">
<title>5</title>
<path fill="#e99356" stroke="black" d="M750,-157C750,-157 552,-157 552,-157 546,-157 540,-151 540,-145 540,-145 540,-101 540,-101 540,-95 546,-89 552,-89 552,-89 750,-89 750,-89 756,-89 762,-95 762,-101 762,-101 762,-145 762,-145 762,-151 756,-157 750,-157"/>
<text text-anchor="start" x="595" y="-141.8" font-family="Helvetica,sans-Serif" font-size="14.00">MonthSal ≤ &#45;0.124</text>
<text text-anchor="start" x="615.5" y="-126.8" font-family="Helvetica,sans-Serif" font-size="14.00">gini = 0.244</text>
<text text-anchor="start" x="602.5" y="-111.8" font-family="Helvetica,sans-Serif" font-size="14.00">samples = 2006</text>
<text text-anchor="start" x="548" y="-96.8" font-family="Helvetica,sans-Serif" font-size="14.00">value = [1734, 0, 138, 0, 1, 133, 0]</text>
</g>
<!-- 1&#45;&gt;5 -->
<g id="edge5" class="edge">
<title>1&#45;&gt;5</title>
<path fill="none" stroke="black" d="M651,-192.88C651,-184.78 651,-175.98 651,-167.47"/>
<polygon fill="black" stroke="black" points="654.5,-167.3 651,-157.3 647.5,-167.3 654.5,-167.3"/>
</g>
<!-- 3 -->
<g id="node4" class="node">
<title>3</title>
<path fill="#63eb73" stroke="black" d="M210,-53C210,-53 12,-53 12,-53 6,-53 0,-47 0,-41 0,-41 0,-12 0,-12 0,-6 6,0 12,0 12,0 210,0 210,0 216,0 222,-6 222,-12 222,-12 222,-41 222,-41 222,-47 216,-53 210,-53"/>
<text text-anchor="start" x="75.5" y="-37.8" font-family="Helvetica,sans-Serif" font-size="14.00">gini = 0.316</text>
<text text-anchor="start" x="62.5" y="-22.8" font-family="Helvetica,sans-Serif" font-size="14.00">samples = 1839</text>
<text text-anchor="start" x="8" y="-7.8" font-family="Helvetica,sans-Serif" font-size="14.00">value = [240, 87, 1499, 0, 12, 1, 0]</text>
</g>
<!-- 2&#45;&gt;3 -->
<g id="edge3" class="edge">
<title>2&#45;&gt;3</title>
<path fill="none" stroke="black" d="M257.31,-88.95C232.58,-78.56 205.46,-67.17 181.35,-57.05"/>
<polygon fill="black" stroke="black" points="182.5,-53.73 171.92,-53.09 179.79,-60.19 182.5,-53.73"/>
</g>
<!-- 4 -->
<g id="node5" class="node">
<title>4</title>
<path fill="#d7f090" stroke="black" d="M420,-53C420,-53 252,-53 252,-53 246,-53 240,-47 240,-41 240,-41 240,-12 240,-12 240,-6 246,0 252,0 252,0 420,0 420,0 426,0 432,-6 432,-12 432,-12 432,-41 432,-41 432,-47 426,-53 420,-53"/>
<text text-anchor="start" x="300.5" y="-37.8" font-family="Helvetica,sans-Serif" font-size="14.00">gini = 0.435</text>
<text text-anchor="start" x="291" y="-22.8" font-family="Helvetica,sans-Serif" font-size="14.00">samples = 242</text>
<text text-anchor="start" x="248" y="-7.8" font-family="Helvetica,sans-Serif" font-size="14.00">value = [0, 167, 72, 2, 1, 0, 0]</text>
</g>
<!-- 2&#45;&gt;4 -->
<g id="edge4" class="edge">
<title>2&#45;&gt;4</title>
<path fill="none" stroke="black" d="M336,-88.95C336,-80.72 336,-71.85 336,-63.48"/>
<polygon fill="black" stroke="black" points="339.5,-63.24 336,-53.24 332.5,-63.24 339.5,-63.24"/>
</g>
<!-- 6 -->
<g id="node7" class="node">
<title>6</title>
<path fill="#d79af2" stroke="black" d="M630,-53C630,-53 462,-53 462,-53 456,-53 450,-47 450,-41 450,-41 450,-12 450,-12 450,-6 456,0 462,0 462,0 630,0 630,0 636,0 642,-6 642,-12 642,-12 642,-41 642,-41 642,-47 636,-53 630,-53"/>
<text text-anchor="start" x="510.5" y="-37.8" font-family="Helvetica,sans-Serif" font-size="14.00">gini = 0.469</text>
<text text-anchor="start" x="501" y="-22.8" font-family="Helvetica,sans-Serif" font-size="14.00">samples = 185</text>
<text text-anchor="start" x="458" y="-7.8" font-family="Helvetica,sans-Serif" font-size="14.00">value = [57, 0, 5, 0, 1, 122, 0]</text>
</g>
<!-- 5&#45;&gt;6 -->
<g id="edge6" class="edge">
<title>5&#45;&gt;6</title>
<path fill="none" stroke="black" d="M614.28,-88.95C603.91,-79.62 592.64,-69.47 582.29,-60.16"/>
<polygon fill="black" stroke="black" points="584.37,-57.32 574.6,-53.24 579.69,-62.53 584.37,-57.32"/>
</g>
<!-- 7 -->
<g id="node8" class="node">
<title>7</title>
<path fill="#e78c4a" stroke="black" d="M862,-53C862,-53 672,-53 672,-53 666,-53 660,-47 660,-41 660,-41 660,-12 660,-12 660,-6 666,0 672,0 672,0 862,0 862,0 868,0 874,-6 874,-12 874,-12 874,-41 874,-41 874,-47 868,-53 862,-53"/>
<text text-anchor="start" x="731.5" y="-37.8" font-family="Helvetica,sans-Serif" font-size="14.00">gini = 0.147</text>
<text text-anchor="start" x="718.5" y="-22.8" font-family="Helvetica,sans-Serif" font-size="14.00">samples = 1821</text>
<text text-anchor="start" x="668" y="-7.8" font-family="Helvetica,sans-Serif" font-size="14.00">value = [1677, 0, 133, 0, 0, 11, 0]</text>
</g>
<!-- 5&#45;&gt;7 -->
<g id="edge7" class="edge">
<title>5&#45;&gt;7</title>
<path fill="none" stroke="black" d="M691.57,-88.95C703.25,-79.43 715.97,-69.07 727.58,-59.62"/>
<polygon fill="black" stroke="black" points="729.87,-62.27 735.41,-53.24 725.44,-56.84 729.87,-62.27"/>
</g>
<!-- 9 -->
<g id="node10" class="node">
<title>9</title>
<path fill="#bec7f6" stroke="black" d="M1220.5,-157C1220.5,-157 1007.5,-157 1007.5,-157 1001.5,-157 995.5,-151 995.5,-145 995.5,-145 995.5,-101 995.5,-101 995.5,-95 1001.5,-89 1007.5,-89 1007.5,-89 1220.5,-89 1220.5,-89 1226.5,-89 1232.5,-95 1232.5,-101 1232.5,-101 1232.5,-145 1232.5,-145 1232.5,-151 1226.5,-157 1220.5,-157"/>
<text text-anchor="start" x="1053" y="-141.8" font-family="Helvetica,sans-Serif" font-size="14.00">PremMotor ≤ &#45;0.887</text>
<text text-anchor="start" x="1078.5" y="-126.8" font-family="Helvetica,sans-Serif" font-size="14.00">gini = 0.574</text>
<text text-anchor="start" x="1065.5" y="-111.8" font-family="Helvetica,sans-Serif" font-size="14.00">samples = 2370</text>
<text text-anchor="start" x="1003.5" y="-96.8" font-family="Helvetica,sans-Serif" font-size="14.00">value = [4, 4, 16, 91, 1315, 144, 796]</text>
</g>
<!-- 8&#45;&gt;9 -->
<g id="edge9" class="edge">
<title>8&#45;&gt;9</title>
<path fill="none" stroke="black" d="M1114,-192.88C1114,-184.78 1114,-175.98 1114,-167.47"/>
<polygon fill="black" stroke="black" points="1117.5,-167.3 1114,-157.3 1110.5,-167.3 1117.5,-167.3"/>
</g>
<!-- 12 -->
<g id="node13" class="node">
<title>12</title>
<path fill="#bf5cea" stroke="black" d="M1577.5,-157C1577.5,-157 1380.5,-157 1380.5,-157 1374.5,-157 1368.5,-151 1368.5,-145 1368.5,-145 1368.5,-101 1368.5,-101 1368.5,-95 1374.5,-89 1380.5,-89 1380.5,-89 1577.5,-89 1577.5,-89 1583.5,-89 1589.5,-95 1589.5,-101 1589.5,-101 1589.5,-145 1589.5,-145 1589.5,-151 1583.5,-157 1577.5,-157"/>
<text text-anchor="start" x="1425.5" y="-141.8" font-family="Helvetica,sans-Serif" font-size="14.00">MonthSal ≤ 0.121</text>
<text text-anchor="start" x="1443.5" y="-126.8" font-family="Helvetica,sans-Serif" font-size="14.00">gini = 0.284</text>
<text text-anchor="start" x="1430.5" y="-111.8" font-family="Helvetica,sans-Serif" font-size="14.00">samples = 1755</text>
<text text-anchor="start" x="1376.5" y="-96.8" font-family="Helvetica,sans-Serif" font-size="14.00">value = [163, 0, 7, 0, 113, 1472, 0]</text>
</g>
<!-- 8&#45;&gt;12 -->
<g id="edge12" class="edge">
<title>8&#45;&gt;12</title>
<path fill="none" stroke="black" d="M1232.25,-192.95C1272.73,-181.64 1318.05,-168.98 1358.69,-157.62"/>
<polygon fill="black" stroke="black" points="1359.68,-160.98 1368.37,-154.92 1357.8,-154.24 1359.68,-160.98"/>
</g>
<!-- 10 -->
<g id="node11" class="node">
<title>10</title>
<path fill="#eb66a1" stroke="black" d="M1087.5,-53C1087.5,-53 904.5,-53 904.5,-53 898.5,-53 892.5,-47 892.5,-41 892.5,-41 892.5,-12 892.5,-12 892.5,-6 898.5,0 904.5,0 904.5,0 1087.5,0 1087.5,0 1093.5,0 1099.5,-6 1099.5,-12 1099.5,-12 1099.5,-41 1099.5,-41 1099.5,-47 1093.5,-53 1087.5,-53"/>
<text text-anchor="start" x="960.5" y="-37.8" font-family="Helvetica,sans-Serif" font-size="14.00">gini = 0.317</text>
<text text-anchor="start" x="951" y="-22.8" font-family="Helvetica,sans-Serif" font-size="14.00">samples = 776</text>
<text text-anchor="start" x="900.5" y="-7.8" font-family="Helvetica,sans-Serif" font-size="14.00">value = [0, 2, 0, 21, 124, 0, 629]</text>
</g>
<!-- 9&#45;&gt;10 -->
<g id="edge10" class="edge">
<title>9&#45;&gt;10</title>
<path fill="none" stroke="black" d="M1072.73,-88.95C1060.85,-79.43 1047.91,-69.07 1036.1,-59.62"/>
<polygon fill="black" stroke="black" points="1038.13,-56.76 1028.14,-53.24 1033.75,-62.22 1038.13,-56.76"/>
</g>
<!-- 11 -->
<g id="node12" class="node">
<title>11</title>
<path fill="#7186ec" stroke="black" d="M1342,-53C1342,-53 1130,-53 1130,-53 1124,-53 1118,-47 1118,-41 1118,-41 1118,-12 1118,-12 1118,-6 1124,0 1130,0 1130,0 1342,0 1342,0 1348,0 1354,-6 1354,-12 1354,-12 1354,-41 1354,-41 1354,-47 1348,-53 1342,-53"/>
<text text-anchor="start" x="1200.5" y="-37.8" font-family="Helvetica,sans-Serif" font-size="14.00">gini = 0.421</text>
<text text-anchor="start" x="1187.5" y="-22.8" font-family="Helvetica,sans-Serif" font-size="14.00">samples = 1594</text>
<text text-anchor="start" x="1126" y="-7.8" font-family="Helvetica,sans-Serif" font-size="14.00">value = [4, 2, 16, 70, 1191, 144, 167]</text>
</g>
<!-- 9&#45;&gt;11 -->
<g id="edge11" class="edge">
<title>9&#45;&gt;11</title>
<path fill="none" stroke="black" d="M1156.67,-88.95C1168.95,-79.43 1182.33,-69.07 1194.54,-59.62"/>
<polygon fill="black" stroke="black" points="1197.01,-62.13 1202.77,-53.24 1192.72,-56.59 1197.01,-62.13"/>
</g>
<!-- 13 -->
<g id="node14" class="node">
<title>13</title>
<path fill="#b84be7" stroke="black" d="M1573.5,-53C1573.5,-53 1384.5,-53 1384.5,-53 1378.5,-53 1372.5,-47 1372.5,-41 1372.5,-41 1372.5,-12 1372.5,-12 1372.5,-6 1378.5,0 1384.5,0 1384.5,0 1573.5,0 1573.5,0 1579.5,0 1585.5,-6 1585.5,-12 1585.5,-12 1585.5,-41 1585.5,-41 1585.5,-47 1579.5,-53 1573.5,-53"/>
<text text-anchor="start" x="1443.5" y="-37.8" font-family="Helvetica,sans-Serif" font-size="14.00">gini = 0.161</text>
<text text-anchor="start" x="1430.5" y="-22.8" font-family="Helvetica,sans-Serif" font-size="14.00">samples = 1567</text>
<text text-anchor="start" x="1380.5" y="-7.8" font-family="Helvetica,sans-Serif" font-size="14.00">value = [24, 0, 1, 0, 111, 1431, 0]</text>
</g>
<!-- 12&#45;&gt;13 -->
<g id="edge13" class="edge">
<title>12&#45;&gt;13</title>
<path fill="none" stroke="black" d="M1479,-88.95C1479,-80.72 1479,-71.85 1479,-63.48"/>
<polygon fill="black" stroke="black" points="1482.5,-63.24 1479,-53.24 1475.5,-63.24 1482.5,-63.24"/>
</g>
<!-- 14 -->
<g id="node15" class="node">
<title>14</title>
<path fill="#eeab7b" stroke="black" d="M1784,-53C1784,-53 1616,-53 1616,-53 1610,-53 1604,-47 1604,-41 1604,-41 1604,-12 1604,-12 1604,-6 1610,0 1616,0 1616,0 1784,0 1784,0 1790,0 1796,-6 1796,-12 1796,-12 1796,-41 1796,-41 1796,-47 1790,-53 1784,-53"/>
<text text-anchor="start" x="1664.5" y="-37.8" font-family="Helvetica,sans-Serif" font-size="14.00">gini = 0.405</text>
<text text-anchor="start" x="1655" y="-22.8" font-family="Helvetica,sans-Serif" font-size="14.00">samples = 188</text>
<text text-anchor="start" x="1612" y="-7.8" font-family="Helvetica,sans-Serif" font-size="14.00">value = [139, 0, 6, 0, 2, 41, 0]</text>
</g>
<!-- 12&#45;&gt;14 -->
<g id="edge14" class="edge">
<title>12&#45;&gt;14</title>
<path fill="none" stroke="black" d="M1556.3,-88.95C1580.58,-78.56 1607.22,-67.17 1630.9,-57.05"/>
<polygon fill="black" stroke="black" points="1632.34,-60.24 1640.16,-53.09 1629.59,-53.8 1632.34,-60.24"/>
</g>
</g>
</svg>
